<svg xmlns="http://www.w3.org/2000/svg" height="24" width="24" viewBox="0 0 24 24"><title>24 circle arrow up</title><g fill="#212121" class="nc-icon-wrapper"><path d="M14 9L10 9" stroke="#212121" stroke-width="2" stroke-linecap="square" fill="none"></path> <path d="M4 6L4 6.01" stroke="#212121" stroke-width="2" stroke-linecap="square" data-color="color-2" fill="none"></path> <path d="M6 4L6 4.01" stroke="#212121" stroke-width="2" stroke-linecap="square" data-color="color-2" fill="none"></path> <path d="M20.01 6L20 6" stroke="#212121" stroke-width="2" stroke-linecap="square" data-color="color-2" fill="none"></path> <path d="M18.01 4L18 4" stroke="#212121" stroke-width="2" stroke-linecap="square" data-color="color-2" fill="none"></path> <path d="M20.01 18L20 18" stroke="#212121" stroke-width="2" stroke-linecap="square" data-color="color-2" fill="none"></path> <path d="M18.01 20L18 20" stroke="#212121" stroke-width="2" stroke-linecap="square" data-color="color-2" fill="none"></path> <path d="M6.01001 20L6.00001 20" stroke="#212121" stroke-width="2" stroke-linecap="square" data-color="color-2" fill="none"></path> <path d="M4.01001 18L4.00001 18" stroke="#212121" stroke-width="2" stroke-linecap="square" data-color="color-2" fill="none"></path> <path d="M22 8L22 16" stroke="#212121" stroke-width="2" stroke-linecap="square" data-color="color-2" fill="none"></path> <path d="M2 8L2 16" stroke="#212121" stroke-width="2" stroke-linecap="square" data-color="color-2" fill="none"></path> <path d="M8 2L16 2" stroke="#212121" stroke-width="2" stroke-linecap="square" data-color="color-2" fill="none"></path> <path d="M8 22L16 22" stroke="#212121" stroke-width="2" stroke-linecap="square" data-color="color-2" fill="none"></path> <path d="M12 6.99999L12 17" stroke="#212121" stroke-width="2" stroke-miterlimit="10" stroke-linecap="square" fill="none"></path> <path d="M8 11L8 10.99" stroke="#212121" stroke-width="2" stroke-linecap="square" fill="none"></path> <path d="M16 11L16 10.99" stroke="#212121" stroke-width="2" stroke-linecap="square" fill="none"></path></g></svg>