<svg width="80" height="80" viewBox="0 0 80 80" fill="none" xmlns="http://www.w3.org/2000/svg">
<path d="M73.3667 53.3333H73.3333" stroke="#212121" stroke-width="6" stroke-linecap="square"/>
<path d="M33.35 13.35H33.3167" stroke="#212121" stroke-width="6" stroke-linecap="square"/>
<path d="M60.0333 53.3333H60" stroke="#212121" stroke-width="6" stroke-linecap="square"/>
<path d="M20.0167 13.35H19.9833" stroke="#212121" stroke-width="6" stroke-linecap="square"/>
<path d="M63.3333 10.0334V10" stroke="#212121" stroke-width="6" stroke-linecap="square"/>
<path d="M56.6667 16.7V16.6667" stroke="#212121" stroke-width="6" stroke-linecap="square"/>
<path d="M70 16.7V16.6667" stroke="#212121" stroke-width="6" stroke-linecap="square"/>
<path d="M63.3333 23.3667V23.3334" stroke="#212121" stroke-width="6" stroke-linecap="square"/>
<path d="M66.6667 43.3333V46.6667" stroke="#212121" stroke-width="6" stroke-linecap="square"/>
<path d="M26.65 3.35001L26.65 6.68334" stroke="#212121" stroke-width="6" stroke-linecap="square"/>
<path d="M66.6667 60V63.3333" stroke="#212121" stroke-width="6" stroke-linecap="square"/>
<path d="M26.65 20.0167L26.65 23.35" stroke="#212121" stroke-width="6" stroke-linecap="square"/>
<path d="M43.3333 26.6667H46.6667" stroke="#212121" stroke-width="6" stroke-linecap="square"/>
<path d="M53.3333 36.6667V33.3333" stroke="#212121" stroke-width="6" stroke-linecap="square"/>
<path d="M36.7 33.3333H36.6667" stroke="#212121" stroke-width="6" stroke-linecap="square"/>
<path d="M30.0334 40H30" stroke="#212121" stroke-width="6" stroke-linecap="square"/>
<path d="M41.7 38.3333H41.6667" stroke="#212121" stroke-width="6" stroke-linecap="square"/>
<path d="M23.3667 46.6667H23.3334" stroke="#212121" stroke-width="6" stroke-linecap="square"/>
<path d="M16.7 53.3333H16.6667" stroke="#212121" stroke-width="6" stroke-linecap="square"/>
<path d="M26.7 63.3333H26.6667" stroke="#212121" stroke-width="6" stroke-linecap="square"/>
<path d="M33.3667 56.6667H33.3333" stroke="#212121" stroke-width="6" stroke-linecap="square"/>
<path d="M40.0333 50H40" stroke="#212121" stroke-width="6" stroke-linecap="square"/>
<path d="M46.7 43.3333H46.6667" stroke="#212121" stroke-width="6" stroke-linecap="square"/>
<path d="M10 60V63.3333" stroke="#212121" stroke-width="6" stroke-linecap="square"/>
<path d="M20 70H16.6667" stroke="#212121" stroke-width="6" stroke-linecap="square"/>
</svg>
