<svg width="80" height="80" viewBox="0 0 80 80" fill="none" xmlns="http://www.w3.org/2000/svg">
<path d="M43.3333 16.6667H43.3666" stroke="#212121" stroke-width="6" stroke-linecap="square"/>
<path d="M50 23.3333H50.0333" stroke="#212121" stroke-width="6" stroke-linecap="square"/>
<path d="M56.6667 30H56.7" stroke="#212121" stroke-width="6" stroke-linecap="square"/>
<path d="M63.3333 36.6667H63.3666" stroke="#212121" stroke-width="6" stroke-linecap="square"/>
<path d="M56.6667 43.3333H56.7" stroke="#212121" stroke-width="6" stroke-linecap="square"/>
<path d="M56.6667 66.6667H56.7" stroke="#212121" stroke-width="6" stroke-linecap="square"/>
<path d="M13.3333 23.3333H13.3666" stroke="#212121" stroke-width="6" stroke-linecap="square"/>
<path d="M50 50H50.0333" stroke="#212121" stroke-width="6" stroke-linecap="square"/>
<path d="M30 30H30.0333" stroke="#212121" stroke-width="6" stroke-linecap="square"/>
<path d="M36.6667 50H36.7" stroke="#212121" stroke-width="6" stroke-linecap="square"/>
<path d="M30 43.3333H30.0333" stroke="#212121" stroke-width="6" stroke-linecap="square"/>
<path d="M36.6667 23.3333H36.7" stroke="#212121" stroke-width="6" stroke-linecap="square"/>
<path d="M50 10H70V30" stroke="#212121" stroke-width="6" stroke-linecap="square"/>
<path d="M63.3333 50V60" stroke="#212121" stroke-width="6" stroke-linecap="square"/>
<path d="M30 16.6667H20" stroke="#212121" stroke-width="6" stroke-linecap="square"/>
<path d="M43.3333 56.6667V73.3333H50" stroke="#212121" stroke-width="6" stroke-linecap="square"/>
<path d="M23.3333 36.6667H6.66666V30" stroke="#212121" stroke-width="6" stroke-linecap="square"/>
<path d="M16.6667 53.3333H20" stroke="#212121" stroke-width="6" stroke-linecap="square"/>
<path d="M26.6667 63.3333V60" stroke="#212121" stroke-width="6" stroke-linecap="square"/>
<path d="M10 60V70H20" stroke="#212121" stroke-width="6" stroke-linecap="square"/>
</svg>
