<svg width="250" height="37" viewBox="0 0 250 37" fill="none" xmlns="http://www.w3.org/2000/svg"><path fill-rule="evenodd" clip-rule="evenodd" d="M122.197 20.5899C122.623 21.416 122.88 22.3287 122.88 23.3042C122.88 26.8146 119.798 29.6601 115.995 29.6601C112.192 29.6601 109.109 26.8146 109.109 23.3042C109.109 19.7937 112.192 16.9482 115.995 16.9482C116.076 16.9482 116.155 16.9522 116.235 16.9561C116.302 16.9585 116.369 16.9609 116.435 16.9648C116.796 16.9897 117.146 17.0415 117.487 17.1169V20.5899H122.197ZM115.864 15.0191C115.842 15.0139 115.819 15.0075 115.799 15.0075C113.259 15.0075 111.201 13.1618 111.201 10.886C111.201 8.60928 113.259 6.76365 115.799 6.76365C117.196 6.76365 118.443 7.3246 119.285 8.20672L122.676 3.41119C120.844 1.94567 118.451 1.05754 115.833 1.05754C110.07 1.05754 105.398 5.35105 105.398 10.6474C105.398 12.2617 105.833 13.7825 106.6 15.1173C104.235 17.3318 102.753 20.3788 102.753 23.7685C102.753 30.532 108.574 36.0151 115.754 36.0151C122.936 36.0151 128.757 30.532 128.757 23.7685C128.757 22.8162 128.618 21.8988 128.392 21.0127H130.295V15.0191H117.003H115.864ZM199.618 10.574C197.29 10.574 194.614 11.3462 193.029 13.182V0H186.439V34.9576H193.029V21.0035C193.177 18.3967 194.812 16.3685 197.587 16.3685C200.758 16.3685 202.096 18.4446 202.096 21.1001V34.9576H208.685V19.9893C208.685 14.7746 205.812 10.574 199.618 10.574ZM179.405 4.23535H173.446V7.62956C173.446 9.79407 172.254 11.4672 169.672 11.4672H168.431V17.272H172.85V28.5371C172.85 33.2111 175.83 36.015 180.596 36.015C182.533 36.015 183.725 35.6705 184.32 35.4244V30.0133C183.973 30.1114 183.079 30.2098 182.285 30.2098C180.398 30.2098 179.405 29.5215 179.405 27.4058V17.272H184.32V11.4672H179.405V4.23535ZM216.101 20.128C216.245 18.1627 218.075 15.8907 221.397 15.8907C225.057 15.8907 226.598 17.9879 226.694 20.128H216.101ZM221.374 10.5918C215.32 10.5918 209.746 15.5606 209.746 23.2062C209.746 31.2912 215.464 36.0155 221.951 36.0155C227.766 36.0155 231.514 32.5574 232.715 28.4178L227.381 26.8105C226.612 28.9534 224.979 30.4636 221.999 30.4636C218.828 30.4636 216.185 28.1737 216.041 25.0084H232.955C232.955 24.9113 233.051 23.9367 233.051 23.0113C233.051 15.3169 228.679 10.5918 221.374 10.5918ZM248.469 10.5918C246.392 10.5918 243.03 11.1816 241.547 14.3746V10.7884H235.17V34.9562H241.745V23.9034C241.745 18.6969 244.661 17.0762 248.023 17.0762C248.617 17.0762 249.259 17.1253 250 17.2728V10.6901C249.506 10.6409 249.012 10.5918 248.469 10.5918ZM150.399 29.6615C145.187 29.6615 139.83 25.9094 139.83 18.009C139.83 10.109 145.187 6.35645 150.399 6.35645C155.66 6.35645 161.016 10.109 161.016 18.009C161.016 25.9094 155.66 29.6615 150.399 29.6615ZM150.4 0C141.472 0 133.475 6.87204 133.475 18.0324C133.475 29.1445 141.472 36.0169 150.4 36.0169C159.375 36.0169 167.373 29.1445 167.373 18.0324C167.373 6.87204 159.375 0 150.4 0ZM0 34.9576H24.3644V28.5477H6.80042V20.4613H22.9349V14.3968H6.80042V6.4099H24.3644V0H0V34.9576ZM38.7125 29.6618C35.2742 29.6618 32.8389 26.9078 32.8389 22.6814C32.8389 18.4071 35.322 15.8906 38.7125 15.8906C42.0557 15.8906 44.4914 18.4071 44.4914 22.6814C44.4914 26.9545 42.0083 29.6618 38.7125 29.6618ZM50.656 11.2758H44.5056V14.2586C43.9331 12.8893 41.9788 10.5918 37.7823 10.5918C30.9644 10.5918 26.4824 16.1647 26.4824 23.2056C26.4824 30.4907 31.0598 36.0155 37.9731 36.0155C41.1201 36.0155 43.5519 34.3523 44.5533 32.0544V32.3483C44.5533 33.5215 44.696 34.7926 44.7914 35.3307H50.8468C50.7991 34.7926 50.656 33.131 50.656 30.9786V11.2758ZM91.5702 10.5747C89.2416 10.5747 86.5659 11.3472 84.9809 13.1818V0H78.3907V34.9576H84.9809V21.004C85.1292 18.3969 86.7638 16.3687 89.5382 16.3687C92.7091 16.3687 94.0471 18.4452 94.0471 21.1003V34.9576H100.636V19.9895C100.636 14.7753 97.7634 10.5747 91.5702 10.5747ZM65.3098 30.0735C62.0688 30.0735 59.3047 27.6381 59.3047 23.3039C59.3047 18.9692 62.0211 16.5825 65.2621 16.5825C68.4073 16.5825 69.8847 18.6276 70.4566 20.6252L76.1283 18.6764C75.1277 14.6345 71.5052 10.5918 65.119 10.5918C58.3033 10.5918 52.9658 15.9007 52.9658 23.3039C52.9658 30.6579 58.3987 36.0155 65.3098 36.0155C71.5529 36.0155 75.2226 31.9249 76.2709 27.9305L70.695 26.0312C70.1704 27.8818 68.5504 30.0735 65.3098 30.0735Z" fill="#ff7ea4"></path></svg>
