<?xml version="1.0" encoding="utf-8"?>
<!-- Generator: Adobe Illustrator 27.3.1, SVG Export Plug-In . SVG Version: 6.00 Build 0)  -->
<svg version="1.1" id="Layer_1" xmlns="http://www.w3.org/2000/svg" xmlns:xlink="http://www.w3.org/1999/xlink" x="0px" y="0px"
	 viewBox="0 0 1080 345.29" style="enable-background:new 0 0 1080 345.29;" xml:space="preserve">
<style type="text/css">
	.st0{fill:#ffffff;}
	.st1{fill:#F3DA41;}
</style>
<g>
	<polygon class="st0" points="93.19,37.93 39.24,37.93 39.24,65.07 90.9,65.07 90.9,96.13 39.24,96.13 39.24,152.7 0,152.7 0,4.9 
		93.19,4.9 	"/>
	<g>
		<path class="st0" d="M186.05,122.62c22.23,0,38.91-18.97,38.91-43.82c0-24.19-15.04-43.81-38.58-43.81
			c-22.24,0-39.24,18.97-39.24,43.81C147.14,103.32,163.81,122.62,186.05,122.62 M186.7,0c48.72,0,77.82,37.6,77.82,78.8
			c0,42.83-33.35,78.8-78.15,78.8c-54.28,0-78.47-42.18-78.47-78.8C107.57,36.62,140.6,0,186.7,0"/>
		<path class="st0" d="M282.51,94.17V4.9h38.91v91.55c0,18.97,6.87,28.12,18.97,28.12c15.69,0,19.29-12.76,19.29-28.12V4.9h38.58
			v88.94c0,44.8-22.89,63.43-57.55,63.43C306.7,157.27,282.51,140.6,282.51,94.17"/>
		<path class="st0" d="M455.15,61.8c0.33,6.21,0.98,20.27,0.98,26.49v64.41h-32.37V4.91h32.7l36.95,58.85
			c11.44,18.31,14.38,26.16,18.31,33.02h0.65c-0.33-6.54-0.65-17.98-0.65-23.87V4.58h32.37v147.79h-32.37l-31.39-50.03
			c-15.37-24.53-19.62-33.68-23.87-40.87L455.15,61.8z"/>
		<path class="st0" d="M621.91,118.69c31.06,0,44.47-18.31,44.47-40.21c0-23.54-14.39-40.22-44.47-40.22h-11.12v80.11L621.91,118.69
			z M623.87,4.9c53.29,0,81.74,33.68,81.74,73.9s-30.08,73.9-82.07,73.9h-51.67V4.9H623.87z"/>
	</g>
	<polygon class="st0" points="818.75,37.93 764.8,37.93 764.8,60.82 816.79,60.82 816.79,91.88 764.8,91.88 764.8,119.35 
		821.04,119.35 821.04,152.7 726.22,152.7 726.22,4.9 818.75,4.9 	"/>
	<g>
		<path class="st0" d="M895.91,34.99h-10.79V70.3h10.79c10.79,0,18.31-5.89,18.31-17.33C914.55,41.85,908.01,34.99,895.91,34.99
			 M971.77,152.7h-45.12l-37.6-55.91h-3.92v55.91h-38.91V4.9h48.06c44.14,0,59.51,19.62,59.51,46.11c0,21.25-12.1,34.33-27.47,39.89
			L971.77,152.7z"/>
		<path class="st0" d="M1042.4,48.39c0-10.79-5.23-17.33-14.72-17.33c-6.54,0-12.1,4.25-12.1,11.77c0,9.16,9.81,13.41,24.2,18.31
			c28.77,10.13,40.21,27.47,40.21,49.37c0,21.58-15.04,46.76-52.32,46.76c-32.37,0-52.97-19.94-52.97-52.32h36.62
			c0,12.76,4.91,21.58,16.68,21.58c8.17,0,14.38-5.23,14.38-13.73c0-9.81-6.86-14.71-23.54-20.6
			c-30.74-10.79-40.22-29.43-40.22-48.39c0-27.8,22.89-43.49,49.7-43.49c30.4,0,49.7,18.31,49.7,48.39L1042.4,48.39z"/>
	</g>
	<polygon class="st0" points="93.19,225.61 39.24,225.61 39.24,253.08 90.9,253.08 90.9,284.14 39.24,284.14 39.24,340.38 0,340.38 
		0,192.59 93.19,192.59 	"/>
	<g>
		<path class="st0" d="M149.1,284.79h31.71l-10.13-31.71c-2.94-8.5-3.6-11.77-4.9-17.98h-1.31c-1.64,6.54-2.94,11.12-5.23,18.31
			L149.1,284.79z M148.77,192.59h36.62l51.98,147.79h-38.9L189,310.63h-48.07l-9.48,29.75H92.86L148.77,192.59z"/>
		<path class="st0" d="M390.41,245.23h-41.52c-1.96-12.42-13.73-24.53-31.06-24.53c-24.2,0-37.27,20.93-37.27,45.78
			c0,24.19,14.71,46.11,37.6,46.11c19.94,0,29.43-14.72,32.04-27.14h42.83c-6.86,31.71-32.7,59.83-75.53,59.83
			c-45.77,0-76.18-34.33-76.18-79.12s32.05-78.15,76.84-78.15C359.67,187.68,386.49,217.11,390.41,245.23"/>
	</g>
	<polygon class="st0" points="430.3,225.61 396.95,225.61 396.95,192.59 502.24,192.59 502.24,225.61 469.21,225.61 469.21,340.38 
		430.3,340.38 	"/>
	<g>
		<path class="st0" d="M585.62,310.3c22.23,0,38.91-18.97,38.91-43.82c0-24.19-15.04-43.81-38.58-43.81
			c-22.24,0-39.24,18.97-39.24,43.81C547.03,291.33,563.7,310.3,585.62,310.3 M586.27,187.68c48.72,0,77.82,37.6,77.82,78.8
			c0,42.83-33.35,78.8-78.15,78.8c-54.28,0-78.47-42.18-78.47-78.8C507.47,224.31,540.49,187.68,586.27,187.68"/>
		<path class="st0" d="M734.06,222.67h-10.79v35.31h10.79c10.79,0,18.31-5.89,18.31-17.33C752.7,229.54,745.83,222.67,734.06,222.67
			 M809.92,340.38H764.8l-37.61-55.91h-3.92v55.91h-38.92V192.59h48.07c44.14,0,59.51,19.62,59.51,46.11
			c0,21.25-12.1,34.33-27.47,39.89L809.92,340.38z"/>
		<path class="st0" d="M847.52,282.18l-49.04-89.59h41.85l19.62,37.93c3.27,6.22,5.89,13.41,7.85,19.29h0.33
			c1.96-6.21,4.58-12.42,7.85-18.96l18.31-38.26h40.87l-48.39,89.59v58.2h-38.91L847.52,282.18z"/>
		<path class="st1" d="M967.85,340.71c-18.31,0-33.02-14.72-33.02-33.02c0-18.31,14.72-33.02,33.02-33.02s33.02,14.72,33.02,33.02
			C1000.87,325.67,986.16,340.71,967.85,340.71"/>
	</g>
</g>
</svg>
