<svg width="100" height="24" viewBox="0 0 100 24" fill="none" xmlns="http://www.w3.org/2000/svg">
<g clip-path="url(#clip0_11352_8524)">
<path d="M26.9343 17.2869H32.0776C32.4609 17.2869 32.7716 17.5953 32.7716 17.9756V18.5642C32.7716 18.9446 32.4609 19.2529 32.0776 19.2529H25.4577C25.0744 19.2529 24.7637 18.9446 24.7637 18.5642V5.53175C24.7637 5.15137 25.0744 4.84301 25.4577 4.84301H26.2403C26.6236 4.84301 26.9343 5.15137 26.9343 5.53175V17.2869Z" fill="white"/>
<path d="M34.3105 18.5642V10.1746C34.3105 9.79424 34.6213 9.48588 35.0045 9.48588H35.6818C36.0651 9.48588 36.3758 9.79424 36.3758 10.1746V18.5642C36.3758 18.9446 36.0651 19.2529 35.6818 19.2529H35.0045C34.6213 19.2529 34.3105 18.9446 34.3105 18.5642Z" fill="white"/>
<path d="M44.1104 6.09786C42.4034 6.09786 41.9398 7.10172 41.9609 8.33568V9.48588H43.5218C43.905 9.48588 44.2157 9.79424 44.2157 10.1746V10.5123C44.2157 10.8926 43.905 11.201 43.5218 11.201H41.9609V18.5642C41.9609 18.9446 41.6502 19.2529 41.267 19.2529H40.5896C40.2063 19.2529 39.8957 18.9446 39.8957 18.5642V11.201H38.693C38.3097 11.201 37.999 10.8926 37.999 10.5123V10.1746C37.999 9.79424 38.3097 9.48588 38.693 9.48588H39.8957V7.98013C39.8957 5.87794 41.6128 4.17382 43.7311 4.17382H44.1328C44.5161 4.17382 44.8268 4.48211 44.8268 4.86248V5.40912C44.8268 5.7895 44.5161 6.09786 44.1328 6.09786H44.1104Z" fill="white"/>
<path d="M52.8353 13.543C52.6246 12.0162 51.5076 11.1378 49.9903 11.1378C48.473 11.1378 47.3351 11.9116 47.0401 13.543H52.8353ZM54.203 15.1951H47.0189C47.2929 16.7846 48.473 17.6003 50.0535 17.6003C51.0194 17.6003 51.9268 17.2371 52.5195 16.5956C52.7315 16.3662 53.064 16.2916 53.3446 16.4309L53.7839 16.6489C54.1763 16.8436 54.2945 17.3497 54.0209 17.6902C53.0701 18.8736 51.5574 19.5035 49.9693 19.5035C47.1244 19.5035 44.8906 17.4329 44.8906 14.3377C44.8906 11.2423 47.1665 9.23454 49.9693 9.23454C52.7721 9.23454 54.9005 11.2423 54.9005 14.3168C54.9005 14.3885 54.899 14.4617 54.8965 14.5364C54.8839 14.9048 54.5745 15.1951 54.203 15.1951Z" fill="white"/>
<path d="M56.2285 14.3586C56.2285 11.2632 58.6941 9.23454 61.539 9.23454C62.838 9.23454 63.9845 9.66107 64.8323 10.369C65.1476 10.6323 65.1536 11.1133 64.8532 11.3931L64.4699 11.75C64.2233 11.9798 63.8475 11.9972 63.5767 11.7961C63.0396 11.3971 62.3483 11.1586 61.5812 11.1586C59.7478 11.1586 58.2937 12.4972 58.2937 14.3586C58.2937 16.22 59.7478 17.5794 61.5812 17.5794C62.3483 17.5794 63.0396 17.3409 63.5767 16.9419C63.8475 16.7408 64.2233 16.7583 64.4699 16.988L64.8532 17.3449C65.1536 17.6247 65.1476 18.1057 64.8323 18.369C63.9845 19.0769 62.838 19.5035 61.539 19.5035C58.6941 19.5035 56.2285 17.4539 56.2285 14.3586Z" fill="white"/>
<path d="M76.3752 13.6688V18.5642C76.3752 18.9446 76.0644 19.2529 75.6812 19.2529H75.004C74.6207 19.2529 74.31 18.9446 74.31 18.5642V13.7943C74.31 12.2049 73.3406 11.2428 72.0762 11.2428C70.7907 11.2428 69.2313 11.9957 69.2313 14.0034V18.5642C69.2313 18.9446 68.9206 19.2529 68.5373 19.2529H67.86C67.4767 19.2529 67.166 18.9446 67.166 18.5642V4.86248C67.166 4.48218 67.4767 4.17382 67.86 4.17382H68.5373C68.9206 4.17382 69.2313 4.48218 69.2313 4.86248V10.9709C69.8003 9.77878 71.3807 9.23497 72.4344 9.23497C74.9211 9.23497 76.3963 10.8872 76.3752 13.6688Z" fill="white"/>
<path d="M86.2171 13.543C86.0064 12.0162 84.8894 11.1378 83.3721 11.1378C81.8549 11.1378 80.7169 11.9116 80.422 13.543H86.2171ZM87.5849 15.1951H80.4008C80.6748 16.7846 81.8549 17.6003 83.4354 17.6003C84.4013 17.6003 85.3086 17.2371 85.9013 16.5956C86.1133 16.3662 86.4458 16.2916 86.7264 16.4309L87.1657 16.6489C87.5581 16.8436 87.6762 17.3497 87.4027 17.6902C86.4519 18.8736 84.9392 19.5035 83.3511 19.5035C80.5062 19.5035 78.2725 17.4329 78.2725 14.3377C78.2725 11.2423 80.5484 9.23454 83.3511 9.23454C86.1539 9.23454 88.2824 11.2423 88.2824 14.3168C88.2824 14.3885 88.2809 14.4617 88.2783 14.5364C88.2657 14.9048 87.9563 15.1951 87.5849 15.1951Z" fill="white"/>
<path d="M97.9133 14.4004C97.9133 12.4346 96.438 11.1587 94.7733 11.1587C93.0874 11.1587 91.7176 12.56 91.7176 14.4004C91.7176 16.2409 93.0874 17.5794 94.7733 17.5794C96.2906 17.5794 97.9133 16.3664 97.9133 14.4004ZM98.6283 9.48559H99.3056C99.6888 9.48559 99.9995 9.79387 99.9995 10.1742V23.3113C99.9995 23.6917 99.6888 24 99.3056 24H98.6283C98.245 24 97.9343 23.6917 97.9343 23.3113V17.8095C97.281 18.918 95.9112 19.5035 94.5204 19.5035C91.8651 19.5035 89.6523 17.4957 89.6523 14.3795C89.6523 11.2842 91.8651 9.2346 94.5415 9.2346C95.8691 9.2346 97.281 9.84107 97.9343 10.9495V10.1742C97.9343 9.79387 98.245 9.48559 98.6283 9.48559Z" fill="white"/>
<path d="M36.7541 5.97668C36.7541 5.20344 36.1225 4.57661 35.3433 4.57661C34.5642 4.57661 33.9326 5.20344 33.9326 5.97668C33.9326 6.74993 34.5642 7.37675 35.3433 7.37675C36.1225 7.37675 36.7541 6.74993 36.7541 5.97668Z" fill="white"/>
<path d="M17.4534 8.77411L9.53595 16.6315C9.16645 16.9982 8.67414 17.2003 8.14978 17.2003C7.62534 17.2003 7.13281 16.9983 6.76361 16.6317L2.39722 12.2981C2.18791 12.0905 2.07296 11.8145 2.07296 11.5211C2.07296 11.2276 2.18791 10.9517 2.397 10.744C2.60586 10.5369 2.88384 10.4227 3.18017 10.4227C3.47643 10.4227 3.75463 10.5369 3.96327 10.744L7.29629 14.0522C7.5244 14.2784 7.82754 14.4029 8.14978 14.4029C8.47195 14.4029 8.77509 14.2784 9.0032 14.0521L15.8874 7.22005C16.0962 7.01291 16.3742 6.89876 16.6703 6.89876C16.9666 6.89876 17.2446 7.01291 17.4534 7.2202C17.6625 7.4277 17.7775 7.70366 17.7775 7.99716C17.7775 8.29058 17.6625 8.56661 17.4534 8.77411ZM18.919 5.76535C18.3184 5.16922 17.5197 4.84094 16.6702 4.84094C15.8207 4.84094 15.0221 5.16922 14.4215 5.76535L8.14986 11.9896L5.42897 9.28931C4.82837 8.69318 4.0297 8.3649 3.18017 8.3649C2.33072 8.3649 1.53212 8.69318 0.931451 9.28931C0.330778 9.88545 0 10.6781 0 11.5211C0 12.3641 0.330778 13.1567 0.931451 13.7528L5.29784 18.0863C6.08416 18.8668 7.11678 19.2568 8.14986 19.2568C9.18248 19.2568 10.2156 18.8665 11.0018 18.0863L18.919 10.2289C19.5197 9.63283 19.8505 8.84011 19.8505 7.99716C19.8505 7.15405 19.5197 6.36149 18.919 5.76535Z" fill="#15D78B"/>
<path d="M7.85579 1.97231C7.03494 1.97231 6.36725 2.63503 6.36725 3.44967C6.36725 4.26424 7.03494 4.92696 7.85579 4.92696C8.67663 4.92696 9.3444 4.26424 9.3444 3.44967C9.3444 2.63503 8.67663 1.97231 7.85579 1.97231ZM7.85579 6.89938C5.93912 6.89938 4.37988 5.35178 4.37988 3.44967C4.37988 1.54748 5.93912 -3.97695e-05 7.85579 -3.97695e-05C9.77246 -3.97695e-05 11.3318 1.54748 11.3318 3.44967C11.3318 5.35178 9.77246 6.89938 7.85579 6.89938Z" fill="#15D78B"/>
</g>
<defs>
<clipPath id="clip0_11352_8524">
<rect width="100" height="24" fill="white"/>
</clipPath>
</defs>
</svg>
