<svg viewBox="0 0 372.2 94.8" xmlns="http://www.w3.org/2000/svg"><defs><linearGradient id="a" x1="24.05" y1="808" x2="24.05" y2="902.8" gradientTransform="translate(0 -808)" gradientUnits="userSpaceOnUse"><stop offset="0.24" stop-color="#ef426f"></stop><stop offset="0.45" stop-color="#ef426f" stop-opacity="0.7"></stop><stop offset="0.9" stop-color="#ef426f" stop-opacity="0"></stop></linearGradient></defs><g fill="white"><path d="M327.7,17.2a6.43,6.43,0,0,0-6.3,0,5.81,5.81,0,0,0-2.2,2.2,6.43,6.43,0,0,0,0,6.3,6.89,6.89,0,0,0,2.2,2.3,6.43,6.43,0,0,0,6.3,0,5.81,5.81,0,0,0,2.2-2.2h0a6.43,6.43,0,0,0,0-6.3A5.44,5.44,0,0,0,327.7,17.2Z"></path><path d="M151.2,32a19.2,19.2,0,1,0,19.1,19.2h0A19.18,19.18,0,0,0,151.2,32Zm0,28.7a9.5,9.5,0,1,1,9.5-9.5A9.5,9.5,0,0,1,151.2,60.7Z"></path><path d="M198.7,33.3a.43.43,0,0,0-.4-.4h-2.8a12.81,12.81,0,0,0-10,4.1.37.37,0,0,1-.6,0h0a.35.35,0,0,1-.1-.2l-1.4-3.5c-.1-.2-.2-.3-.4-.3h-5.5a.43.43,0,0,0-.4.4V68.8a.43.43,0,0,0,.4.4h8.9a.43.43,0,0,0,.4-.4V50.4c0-3,.6-5.1,1.8-6.4s3.2-1.9,5.9-2h3.4a.9.9,0,0,0,.9-.9h-.1V33.3Z"></path><path d="M313.4,33.3a.43.43,0,0,0-.4-.4h-2.8a12.81,12.81,0,0,0-10,4.1.37.37,0,0,1-.6,0h0c-.1,0-.1-.1-.1-.2l-1.4-3.5c-.1-.2-.2-.3-.4-.3h-5.5a.43.43,0,0,0-.4.4V68.8a.43.43,0,0,0,.4.4h8.9a.43.43,0,0,0,.4-.4V50.4c0-3,.6-5.1,1.8-6.4s3.2-1.9,5.9-2h3.4a.9.9,0,0,0,.9-.9h0V33.3Z"></path><path d="M275.8,34.6a20,20,0,0,0-19.4-.1,18,18,0,0,0-6.8,6.9,20.44,20.44,0,0,0,0,19.5,17.36,17.36,0,0,0,6.8,6.9,19.58,19.58,0,0,0,20.7-1,18.75,18.75,0,0,0,6.6-8.8.45.45,0,0,0-.3-.6h-9.3a.84.84,0,0,0-.7.4,8.38,8.38,0,0,1-2.9,2.7,10.39,10.39,0,0,1-4.6,1.1,8.48,8.48,0,0,1-8.8-7.1c0-.2.1-.5.3-.5h26.2a1,1,0,0,0,.9-.8h.1a14.77,14.77,0,0,0,.1-2.1,20.81,20.81,0,0,0-2.3-9.5A16.54,16.54,0,0,0,275.8,34.6Zm-1.2,12.6H258a.43.43,0,0,1-.4-.4h0v-.1a9.22,9.22,0,0,1,3-4.5,8.46,8.46,0,0,1,5.5-1.8,8.8,8.8,0,0,1,8.7,6.3A.37.37,0,0,1,274.6,47.2Z"></path><path d="M372.2,68.8V47.3c0-4.6-1.2-8.3-3.6-11a12.25,12.25,0,0,0-9.8-4.1,17.11,17.11,0,0,0-6.7,1.4,16.14,16.14,0,0,0-4.8,3.4.37.37,0,0,1-.6,0,.35.35,0,0,1-.1-.2l-1.5-3.6c-.1-.2-.2-.3-.4-.3h-6a.43.43,0,0,0-.4.4V68.6a.43.43,0,0,0,.4.4h8.9a.43.43,0,0,0,.4-.4V50.3a10,10,0,0,1,2.2-6.9,7.45,7.45,0,0,1,5.9-2.5q6.3,0,6.3,8.1V68.9a.43.43,0,0,0,.4.4h8.9a.47.47,0,0,0,.5-.5Z"></path><path d="M329,33.1h-8.9a.43.43,0,0,0-.4.4h0V68.8a.43.43,0,0,0,.4.4H329a.43.43,0,0,0,.4-.4V33.5A.43.43,0,0,0,329,33.1Z"></path><path d="M239.8,17.4h-8.9a.43.43,0,0,0-.4.4V34.2a.43.43,0,0,1-.4.4c-.1,0-.1,0-.2-.1a17.88,17.88,0,0,0-9.3-2.6,19.81,19.81,0,0,0-7.6,1.5,17.75,17.75,0,0,0-10,10.1,18,18,0,0,0-1.4,7.6A18.46,18.46,0,0,0,207,64.8a18.72,18.72,0,0,0,13.6,5.5,16.57,16.57,0,0,0,10.9-3.7.37.37,0,0,1,.6,0l.1.1.8,2.2c.1.2.2.3.4.3h6.5a.43.43,0,0,0,.4-.4V17.9C240.2,17.6,240,17.4,239.8,17.4ZM221.3,61.3a10.1,10.1,0,0,1-5.6-18.5h.1a10,10,0,0,1,13.9,2.7,10.56,10.56,0,0,1,1.7,5.7A10.07,10.07,0,0,1,221.3,61.3Z"></path></g><path d="M47.4,25.8V0a47.41,47.41,0,0,0,0,94.8S22.8,64,22.8,50.4A24.58,24.58,0,0,1,47.4,25.8Z" fill="url(#a)"></path><path d="M47.3,0V25.8A24.67,24.67,0,0,1,72,50.4C72,64,47.4,94.8,47.4,94.8A47.41,47.41,0,0,0,48.7,0Z" fill="#ef426f"></path><circle cx="47.4" cy="49.8" r="9.2" fill="#ef426f"></circle></svg>
