<svg xmlns="http://www.w3.org/2000/svg" width="247" height="36" viewBox="0 0 247 36" fill="none"><g clip-path="url(#clip0_1381_607)"><path d="M31.8756 7.64721L28.5129 4.28084L31.5695 1.22599C31.7281 1.10087 31.8327 0.919551 31.8617 0.719466C31.8906 0.519381 31.8417 0.315805 31.7251 0.150764C31.5612 0.0349421 31.3594 -0.0139484 31.1607 0.0140599C30.9621 0.0420682 30.7816 0.144866 30.656 0.301497L27.6045 3.3664L24.5379 0.301497C24.4123 0.144866 24.2318 0.0420682 24.0332 0.0140599C23.8345 -0.0139484 23.6327 0.0349421 23.4688 0.150764C23.3522 0.315805 23.3033 0.519381 23.3322 0.719466C23.3612 0.919551 23.4658 1.10087 23.6244 1.22599L26.681 4.28084L23.3182 7.64721C23.1596 7.77233 23.055 7.95365 23.0261 8.15373C22.9971 8.35382 23.046 8.55739 23.1627 8.72243C23.3275 8.8392 23.5309 8.88815 23.7307 8.85916C23.9306 8.83018 24.1117 8.72548 24.2367 8.56668L27.6045 5.20031L30.9672 8.56668C31.0913 8.72513 31.2716 8.82969 31.4706 8.85869C31.6696 8.88769 31.8722 8.8389 32.0363 8.72243C32.1536 8.5572 32.2024 8.3529 32.1724 8.15241C32.1425 7.95193 32.0361 7.77085 31.8756 7.64721Z" fill="#ffffff"></path><path d="M53.7033 13.6111C55.6607 11.6516 54.9982 10.5964 52.2277 10.5964H2.59481C-0.170663 10.5964 -0.83317 11.6616 1.12424 13.6111C1.12424 13.6111 6.94126 19.6404 26.4401 19.7962L26.942 29.1617C20.869 29.3677 19.1424 33.0908 19.1424 33.0908C18.4147 34.6584 19.2278 35.9447 20.9593 35.9447H26.3096L27.3636 34.4373L28.4226 35.9447H33.9937C35.7202 35.9447 36.5383 34.6584 35.8105 33.0908C35.8105 33.0908 34.0991 29.4029 28.0963 29.1617L28.7588 19.7962C47.9816 19.5952 53.7033 13.6111 53.7033 13.6111Z" fill="#ffffff"></path><path d="M76.6501 11.2297C77.6552 11.8882 78.4552 12.8161 78.9589 13.9077C79.5307 15.1375 79.8189 16.4804 79.8021 17.8368C79.8021 20.0375 79.2215 21.8111 78.0605 23.1577C77.4946 23.8174 76.7873 24.3408 75.9913 24.6887C75.1953 25.0367 74.331 25.2004 73.4631 25.1675H70.3463C70.3211 25.1642 70.2955 25.1667 70.2715 25.1749C70.2474 25.1831 70.2256 25.1967 70.2077 25.2146C70.1897 25.2326 70.1761 25.2544 70.168 25.2785C70.1598 25.3026 70.1573 25.3282 70.1606 25.3534V35.5529C70.1624 35.6107 70.1521 35.6683 70.1305 35.7219C70.1089 35.7755 70.0764 35.8241 70.0351 35.8645C69.9954 35.907 69.9471 35.9407 69.8935 35.9632C69.8398 35.9857 69.782 35.9966 69.7239 35.9951H66.3511C66.2929 35.9972 66.2349 35.9867 66.1812 35.9641C66.1274 35.9415 66.0793 35.9075 66.04 35.8645C65.998 35.8243 65.9647 35.7759 65.9422 35.7223C65.9198 35.6687 65.9086 35.6111 65.9095 35.5529V10.7172C65.9089 10.6591 65.9202 10.6016 65.9426 10.548C65.9651 10.4944 65.9982 10.446 66.04 10.4057C66.08 10.3637 66.1284 10.3303 66.1819 10.3079C66.2355 10.2854 66.2931 10.2742 66.3511 10.2751H73.2422C74.4464 10.2576 75.6299 10.5891 76.6501 11.2297ZM74.7078 20.7761C75.2953 19.9485 75.5855 18.9461 75.5309 17.9323C75.585 16.8951 75.2957 15.8689 74.7078 15.0131C74.4581 14.6699 74.1291 14.3923 73.7489 14.2042C73.3686 14.016 72.9485 13.9229 72.5245 13.9329H70.3262C70.3013 13.9287 70.2758 13.9304 70.2517 13.9379C70.2276 13.9454 70.2056 13.9585 70.1875 13.9762C70.1694 13.9938 70.1558 14.0154 70.1476 14.0393C70.1394 14.0632 70.137 14.0887 70.1405 14.1137V21.6504C70.1361 21.6758 70.1378 21.7018 70.1456 21.7264C70.1534 21.751 70.167 21.7733 70.1852 21.7915C70.2034 21.8098 70.2257 21.8233 70.2502 21.8311C70.2748 21.8389 70.3008 21.8407 70.3262 21.8363H72.5245C72.9452 21.8485 73.3628 21.7601 73.7425 21.5784C74.1223 21.3966 74.4532 21.1267 74.7078 20.7912V20.7761Z" fill="#ffffff"></path><path d="M95.361 13.8523C95.3213 13.8948 95.273 13.9285 95.2194 13.951C95.1657 13.9735 95.1079 13.9844 95.0498 13.9829H87.1147C87.0894 13.9785 87.0633 13.9803 87.0388 13.9881C87.0142 13.9958 86.9919 14.0094 86.9737 14.0276C86.9555 14.0459 86.9419 14.0682 86.9342 14.0928C86.9264 14.1173 86.9246 14.1434 86.929 14.1688V21.1025C86.9255 21.1275 86.928 21.153 86.9361 21.1769C86.9443 21.2008 86.958 21.2225 86.9761 21.2401C86.9942 21.2577 87.0161 21.2708 87.0402 21.2783C87.0643 21.2859 87.0899 21.2876 87.1147 21.2834H91.8025C91.8605 21.2825 91.9182 21.2937 91.9717 21.3162C92.0252 21.3387 92.0736 21.372 92.1137 21.414C92.1562 21.4538 92.1898 21.5021 92.2123 21.5558C92.2348 21.6095 92.2456 21.6673 92.2442 21.7255V24.5493C92.2428 24.6661 92.1959 24.7778 92.1133 24.8605C92.0308 24.9431 91.9192 24.9901 91.8025 24.9914H87.1147C87.0899 24.9872 87.0643 24.989 87.0402 24.9965C87.0161 25.004 86.9942 25.0171 86.9761 25.0347C86.958 25.0524 86.9443 25.074 86.9361 25.0979C86.928 25.1218 86.9255 25.1473 86.929 25.1723V32.1563C86.9246 32.1816 86.9264 32.2077 86.9342 32.2323C86.9419 32.2569 86.9555 32.2792 86.9737 32.2974C86.9919 32.3157 87.0142 32.3292 87.0388 32.337C87.0633 32.3448 87.0894 32.3466 87.1147 32.3422H95.0297C95.0874 32.3407 95.1448 32.351 95.1983 32.3726C95.2518 32.3942 95.3004 32.4266 95.3409 32.4678C95.3827 32.5081 95.4158 32.5565 95.4382 32.6101C95.4606 32.6636 95.4719 32.7212 95.4714 32.7793V35.5678C95.4722 35.626 95.4611 35.6836 95.4386 35.7372C95.4162 35.7908 95.3829 35.8392 95.3409 35.8794C95.3012 35.9219 95.2529 35.9555 95.1993 35.9781C95.1456 36.0006 95.0878 36.0115 95.0297 36.01H83.1196C83.0613 36.0125 83.0032 36.002 82.9494 35.9795C82.8957 35.9569 82.8475 35.9227 82.8084 35.8794C82.7654 35.84 82.7314 35.7918 82.7089 35.738C82.6864 35.6842 82.6758 35.6261 82.6779 35.5678V10.7522C82.6779 10.6944 82.6894 10.6371 82.7116 10.5838C82.7339 10.5304 82.7665 10.482 82.8076 10.4413C82.8487 10.4007 82.8974 10.3686 82.951 10.3469C83.0045 10.3252 83.0618 10.3144 83.1196 10.3151H95.0297C95.0874 10.3136 95.1448 10.324 95.1983 10.3456C95.2518 10.3672 95.3004 10.3995 95.3409 10.4407C95.3827 10.481 95.4158 10.5294 95.4382 10.583C95.4606 10.6365 95.4719 10.6941 95.4714 10.7522V13.5659C95.4718 13.6718 95.4324 13.7741 95.361 13.8523Z" fill="#ffffff"></path><path d="M109.344 11.2297C110.35 11.8867 111.151 12.815 111.653 13.9077C112.22 15.1383 112.501 16.4816 112.476 17.8368C112.476 20.0375 111.897 21.8111 110.739 23.1576C110.172 23.8175 109.464 24.3408 108.667 24.6888C107.87 25.0367 107.005 25.2003 106.137 25.1674H103.02C102.995 25.1649 102.97 25.1681 102.947 25.1766C102.923 25.1852 102.902 25.1989 102.885 25.2168C102.867 25.2346 102.854 25.2562 102.846 25.2798C102.839 25.3035 102.836 25.3286 102.839 25.3533V35.5529C102.84 35.611 102.829 35.6687 102.806 35.7223C102.784 35.7759 102.751 35.8243 102.709 35.8644C102.669 35.907 102.621 35.9406 102.567 35.9631C102.513 35.9856 102.456 35.9965 102.398 35.995H99.0248C98.9667 35.9965 98.9089 35.9856 98.8552 35.9631C98.8016 35.9406 98.7533 35.907 98.7136 35.8644C98.6723 35.824 98.6398 35.7755 98.6182 35.7219C98.5966 35.6682 98.5863 35.6107 98.5881 35.5529V10.7172C98.5866 10.6594 98.597 10.602 98.6186 10.5484C98.6402 10.4948 98.6725 10.4462 98.7136 10.4057C98.7539 10.3638 98.8022 10.3307 98.8558 10.3082C98.9093 10.2858 98.9668 10.2745 99.0248 10.275H105.901C107.117 10.2498 108.314 10.5817 109.344 11.2297ZM107.402 20.7761C107.989 19.9485 108.279 18.9461 108.225 17.9322C108.277 16.9006 107.989 15.8804 107.407 15.0281C107.157 14.6846 106.828 14.4068 106.448 14.2186C106.068 14.0304 105.647 13.9375 105.223 13.9479H103.025C103 13.9446 102.975 13.9469 102.952 13.9549C102.929 13.9628 102.907 13.976 102.89 13.9935C102.872 14.011 102.859 14.0323 102.851 14.0558C102.843 14.0792 102.841 14.1042 102.844 14.1287V21.6654C102.84 21.6903 102.842 21.7158 102.849 21.74C102.857 21.7641 102.87 21.7861 102.888 21.8042C102.905 21.8223 102.927 21.836 102.951 21.8442C102.974 21.8524 103 21.8548 103.025 21.8513H105.223C105.645 21.8622 106.064 21.7717 106.444 21.5872C106.824 21.4027 107.154 21.1297 107.407 20.7911L107.402 20.7761Z" fill="#ffffff"></path><path d="M126.092 11.2296C127.1 11.8852 127.901 12.8139 128.401 13.9076C128.97 15.1378 129.253 16.4812 129.229 17.8367C129.229 20.0374 128.649 21.811 127.488 23.1576C126.921 23.8177 126.213 24.3413 125.416 24.6892C124.619 25.0372 123.754 25.2007 122.885 25.1674H119.773C119.748 25.1641 119.723 25.1666 119.699 25.1748C119.675 25.183 119.653 25.1966 119.635 25.2145C119.617 25.2325 119.603 25.2543 119.595 25.2784C119.587 25.3025 119.584 25.3281 119.588 25.3533V35.5528C119.589 35.6106 119.579 35.6682 119.558 35.7218C119.536 35.7754 119.503 35.824 119.462 35.8644C119.421 35.907 119.372 35.9407 119.318 35.9632C119.263 35.9857 119.205 35.9965 119.146 35.995H115.778C115.72 35.9957 115.662 35.9847 115.608 35.9627C115.554 35.9407 115.506 35.9082 115.464 35.867C115.423 35.8258 115.391 35.7768 115.369 35.7228C115.347 35.6689 115.336 35.6111 115.337 35.5528V10.7171C115.335 10.6594 115.345 10.6019 115.367 10.5483C115.389 10.4947 115.421 10.4462 115.462 10.4056C115.503 10.3634 115.552 10.3301 115.607 10.3076C115.661 10.2851 115.719 10.274 115.778 10.275H122.669C123.879 10.2528 125.068 10.5846 126.092 11.2296ZM119.773 21.8362H121.962C122.382 21.8489 122.799 21.7606 123.178 21.5788C123.557 21.3969 123.887 21.1268 124.14 20.7911C124.733 19.9657 125.027 18.9625 124.973 17.9473C125.028 16.9092 124.737 15.8821 124.145 15.0281C123.896 14.6839 123.567 14.4056 123.187 14.2174C122.806 14.0291 122.386 13.9366 121.962 13.9478H119.763C119.738 13.9436 119.713 13.9454 119.689 13.9529C119.665 13.9604 119.643 13.9735 119.625 13.9911C119.607 14.0088 119.593 14.0304 119.585 14.0543C119.577 14.0782 119.574 14.1037 119.578 14.1287V21.6653C119.573 21.6907 119.575 21.7168 119.583 21.7414C119.59 21.766 119.604 21.7883 119.622 21.8065C119.64 21.8247 119.663 21.8383 119.687 21.8461C119.712 21.8539 119.738 21.8556 119.763 21.8512" fill="#ffffff"></path><path d="M144.788 13.8523C144.748 13.8948 144.7 13.9285 144.646 13.951C144.593 13.9735 144.535 13.9844 144.477 13.9829H136.557C136.532 13.9794 136.506 13.9818 136.483 13.99C136.459 13.9982 136.437 14.0119 136.42 14.03C136.402 14.0481 136.389 14.0701 136.381 14.0942C136.374 14.1184 136.372 14.1439 136.376 14.1688V21.1025C136.373 21.1271 136.375 21.152 136.383 21.1755C136.391 21.1989 136.404 21.2203 136.422 21.2378C136.439 21.2553 136.461 21.2685 136.484 21.2764C136.507 21.2843 136.532 21.2867 136.557 21.2834H141.25C141.308 21.2825 141.365 21.2937 141.419 21.3162C141.472 21.3387 141.521 21.372 141.561 21.414C141.603 21.4543 141.636 21.5028 141.658 21.5563C141.681 21.6099 141.692 21.6675 141.691 21.7255V24.5493C141.692 24.6074 141.681 24.6651 141.659 24.7187C141.636 24.7723 141.603 24.8207 141.561 24.8608C141.522 24.9039 141.473 24.9379 141.42 24.9604C141.366 24.983 141.308 24.9936 141.25 24.9914H136.557C136.532 24.9881 136.507 24.9905 136.484 24.9984C136.461 25.0063 136.439 25.0196 136.422 25.0371C136.404 25.0546 136.391 25.0759 136.383 25.0993C136.375 25.1228 136.373 25.1478 136.376 25.1723V32.1563C136.372 32.1812 136.374 32.2067 136.381 32.2308C136.389 32.2549 136.402 32.2769 136.42 32.2951C136.437 32.3132 136.459 32.3269 136.483 32.335C136.506 32.3432 136.532 32.3457 136.557 32.3422H144.477C144.535 32.3407 144.592 32.351 144.646 32.3726C144.699 32.3942 144.748 32.4266 144.788 32.4678C144.83 32.5081 144.863 32.5565 144.885 32.6101C144.908 32.6636 144.919 32.7212 144.919 32.7793V35.5678C144.919 35.626 144.908 35.6836 144.886 35.7372C144.863 35.7908 144.83 35.8392 144.788 35.8794C144.748 35.9219 144.7 35.9555 144.646 35.9781C144.593 36.0006 144.535 36.0115 144.477 36.01H132.562C132.504 36.0115 132.446 36.0006 132.392 35.9781C132.339 35.9555 132.29 35.9219 132.251 35.8794C132.209 35.839 132.177 35.7904 132.155 35.7368C132.134 35.6832 132.123 35.6256 132.125 35.5678V10.7522C132.124 10.6944 132.134 10.637 132.156 10.5833C132.177 10.5297 132.209 10.4809 132.25 10.4401C132.291 10.3992 132.339 10.367 132.393 10.3456C132.447 10.3241 132.504 10.3137 132.562 10.3151H144.477C144.535 10.3136 144.592 10.324 144.646 10.3456C144.699 10.3672 144.748 10.3995 144.788 10.4407C144.83 10.481 144.863 10.5294 144.885 10.583C144.908 10.6365 144.919 10.6941 144.919 10.7522V13.5659C144.914 13.6746 144.867 13.7772 144.788 13.8523Z" fill="#ffffff"></path><path d="M157.747 35.6332L154.595 25.0819C154.545 24.9814 154.485 24.9312 154.409 24.9312H152.502C152.477 24.9287 152.452 24.9319 152.429 24.9404C152.406 24.949 152.385 24.9627 152.367 24.9806C152.35 24.9984 152.337 25.02 152.329 25.0436C152.321 25.0672 152.318 25.0924 152.322 25.1171V35.5578C152.322 35.616 152.311 35.6736 152.289 35.7272C152.266 35.7808 152.233 35.8292 152.191 35.8694C152.151 35.9119 152.103 35.9456 152.049 35.9681C151.996 35.9906 151.938 36.0015 151.88 36H148.507C148.449 36.0015 148.391 35.9906 148.338 35.9681C148.284 35.9456 148.236 35.9119 148.196 35.8694C148.155 35.829 148.122 35.7804 148.101 35.7268C148.079 35.6732 148.069 35.6156 148.07 35.5578V10.7171C148.069 10.6593 148.079 10.6019 148.101 10.5483C148.123 10.4947 148.155 10.4461 148.196 10.4056C148.236 10.3638 148.285 10.3306 148.338 10.3081C148.392 10.2857 148.449 10.2744 148.507 10.2749H155.398C156.599 10.2425 157.784 10.5643 158.804 11.2004C159.824 11.8364 160.634 12.7586 161.135 13.8523C161.705 15.0751 161.988 16.4122 161.963 17.7613C161.997 19.1287 161.693 20.4834 161.08 21.7055C160.536 22.7734 159.68 23.6499 158.625 24.2177C158.525 24.2177 158.49 24.3132 158.515 24.4338L162.109 35.4875C162.131 35.5451 162.143 35.6064 162.144 35.6684C162.144 35.8895 162.008 36 161.742 36H158.229C158.118 36.0083 158.007 35.9755 157.919 35.908C157.83 35.8404 157.769 35.7427 157.747 35.6332ZM152.322 14.1287V21.4342C152.318 21.4587 152.321 21.4837 152.329 21.5071C152.336 21.5306 152.35 21.5519 152.367 21.5694C152.385 21.5869 152.406 21.6002 152.429 21.6081C152.453 21.616 152.478 21.6184 152.502 21.6151H154.741C155.152 21.6272 155.56 21.5427 155.932 21.3681C156.304 21.1936 156.63 20.934 156.884 20.6102C157.468 19.8155 157.759 18.8423 157.707 17.8568C157.765 16.8426 157.474 15.8391 156.884 15.013C156.635 14.6806 156.311 14.4124 155.939 14.2306C155.566 14.0488 155.155 13.9588 154.741 13.9679H152.502C152.48 13.965 152.456 13.9671 152.435 13.9738C152.413 13.9806 152.393 13.992 152.375 14.0072C152.358 14.0225 152.345 14.0412 152.335 14.0621C152.326 14.0831 152.321 14.1058 152.322 14.1287Z" fill="#ffffff"></path><path d="M175.69 11.2295C176.695 11.888 177.495 12.8159 177.999 13.9076C178.564 15.139 178.845 16.4818 178.822 17.8367C178.822 20.0374 178.241 21.811 177.08 23.1575C176.514 23.8176 175.806 24.3412 175.009 24.6892C174.212 25.0372 173.347 25.2006 172.478 25.1673H169.366C169.341 25.164 169.315 25.1665 169.291 25.1747C169.267 25.1829 169.245 25.1965 169.227 25.2145C169.21 25.2324 169.196 25.2543 169.188 25.2783C169.18 25.3024 169.177 25.328 169.18 25.3532V35.5528C169.182 35.6106 169.172 35.6681 169.15 35.7217C169.129 35.7754 169.096 35.8239 169.055 35.8643C169.015 35.9068 168.967 35.9405 168.913 35.963C168.86 35.9855 168.802 35.9964 168.744 35.9949H165.371C165.313 35.9971 165.255 35.9865 165.201 35.9639C165.147 35.9414 165.099 35.9074 165.06 35.8643C165.018 35.8242 164.985 35.7758 164.962 35.7222C164.94 35.6686 164.928 35.6109 164.929 35.5528V10.717C164.929 10.659 164.94 10.6014 164.962 10.5478C164.985 10.4943 165.018 10.4458 165.06 10.4055C165.1 10.3635 165.148 10.3302 165.202 10.3077C165.255 10.2852 165.313 10.274 165.371 10.2749H172.262C173.473 10.2535 174.664 10.5852 175.69 11.2295ZM173.743 20.7759C174.334 19.9499 174.626 18.9468 174.571 17.9321C174.626 16.894 174.335 15.867 173.743 15.0129C173.494 14.6695 173.166 14.3916 172.787 14.2034C172.407 14.0152 171.988 13.9223 171.564 13.9327H169.366C169.341 13.9285 169.316 13.9302 169.292 13.9377C169.268 13.9453 169.246 13.9584 169.227 13.976C169.209 13.9936 169.196 14.0152 169.187 14.0391C169.179 14.063 169.177 14.0885 169.18 14.1136V21.6502C169.176 21.6756 169.178 21.7017 169.186 21.7262C169.193 21.7508 169.207 21.7731 169.225 21.7914C169.243 21.8096 169.266 21.8232 169.29 21.831C169.315 21.8387 169.341 21.8405 169.366 21.8361H171.564C171.984 21.8488 172.401 21.7605 172.78 21.5787C173.159 21.3969 173.489 21.1268 173.743 20.791V20.7759Z" fill="#ffffff"></path><path d="M181.843 35.8694C181.802 35.8291 181.77 35.7805 181.748 35.7269C181.726 35.6733 181.716 35.6157 181.718 35.5579V10.7523C181.717 10.6941 181.727 10.6362 181.749 10.5822C181.771 10.5282 181.803 10.4792 181.844 10.4383C181.886 10.3974 181.935 10.3653 181.989 10.3442C182.044 10.323 182.101 10.3131 182.16 10.3152H185.527C185.586 10.3139 185.644 10.3243 185.698 10.3459C185.752 10.3675 185.802 10.3998 185.844 10.4408C185.885 10.4814 185.917 10.53 185.939 10.5835C185.96 10.6371 185.971 10.6946 185.969 10.7523V32.1564C185.965 32.1818 185.966 32.2079 185.974 32.2324C185.982 32.257 185.995 32.2793 186.014 32.2976C186.032 32.3158 186.054 32.3294 186.079 32.3371C186.103 32.3449 186.129 32.3467 186.155 32.3423H194.07C194.127 32.3408 194.185 32.3512 194.238 32.3728C194.292 32.3944 194.34 32.4268 194.381 32.4679C194.423 32.5082 194.456 32.5566 194.478 32.6102C194.501 32.6637 194.512 32.7213 194.511 32.7794V35.568C194.512 35.6261 194.501 35.6838 194.479 35.7374C194.456 35.791 194.423 35.8394 194.381 35.8795C194.341 35.922 194.293 35.9557 194.239 35.9782C194.186 36.0007 194.128 36.0116 194.07 36.0101H182.16C182.1 36.011 182.041 35.999 181.986 35.9747C181.931 35.9504 181.883 35.9145 181.843 35.8694Z" fill="#ffffff"></path><path d="M208.329 35.5981L207.631 31.7444C207.631 31.6188 207.556 31.5585 207.41 31.5585H202.095C201.949 31.5585 201.874 31.6087 201.874 31.7042L201.141 35.5981C201.141 35.6573 201.127 35.7157 201.102 35.7693C201.077 35.8228 201.04 35.8703 200.995 35.9084C200.95 35.9466 200.897 35.9745 200.84 35.9903C200.783 36.0061 200.723 36.0095 200.665 36.0001H197.297C196.976 36.0001 196.855 35.8393 196.925 35.4976L202.316 10.7172C202.32 10.6592 202.336 10.6028 202.363 10.551C202.389 10.4993 202.426 10.4534 202.47 10.416C202.514 10.3786 202.566 10.3504 202.621 10.3331C202.677 10.3158 202.735 10.3097 202.793 10.3152H206.712C206.77 10.309 206.829 10.3146 206.885 10.3316C206.94 10.3486 206.992 10.3768 207.037 10.4143C207.081 10.4519 207.118 10.4981 207.144 10.5501C207.17 10.6022 207.186 10.659 207.189 10.7172L212.615 35.5227V35.6735C212.615 35.8945 212.479 36.0051 212.213 36.0051H208.79C208.733 36.0122 208.674 36.007 208.619 35.9898C208.563 35.9726 208.512 35.9438 208.468 35.9054C208.425 35.8669 208.39 35.8197 208.366 35.7667C208.341 35.7138 208.329 35.6563 208.329 35.5981ZM202.808 28.2223H206.823C206.968 28.2223 207.029 28.162 207.009 28.0364L205.001 16.9826C204.976 16.9073 204.941 16.8721 204.891 16.8721C204.84 16.8721 204.805 16.9073 204.78 16.9826L202.657 28.0364C202.587 28.162 202.647 28.2223 202.793 28.2223H202.808Z" fill="#ffffff"></path><path d="M215.787 35.8694C215.745 35.8293 215.712 35.7809 215.689 35.7273C215.667 35.6737 215.655 35.616 215.656 35.5579V10.7523C215.656 10.6942 215.667 10.6367 215.69 10.5831C215.712 10.5295 215.745 10.4811 215.787 10.4408C215.827 10.3997 215.876 10.3673 215.929 10.3457C215.983 10.3241 216.04 10.3137 216.098 10.3152H219.611C219.719 10.3084 219.826 10.3366 219.916 10.3954C220.007 10.4542 220.076 10.5406 220.113 10.6418L225.795 25.5794C225.845 25.6497 225.895 25.6899 225.945 25.6899C225.995 25.6899 226.016 25.6397 226.016 25.5392V10.7523C226.015 10.6942 226.026 10.6367 226.049 10.5831C226.071 10.5295 226.104 10.4811 226.146 10.4408C226.186 10.3994 226.235 10.3669 226.288 10.3452C226.342 10.3236 226.399 10.3134 226.457 10.3152H229.79C229.848 10.3134 229.905 10.3236 229.959 10.3452C230.012 10.3669 230.061 10.3994 230.101 10.4408C230.143 10.4811 230.176 10.5295 230.198 10.5831C230.221 10.6367 230.232 10.6942 230.232 10.7523V35.5579C230.232 35.616 230.221 35.6737 230.199 35.7273C230.176 35.7809 230.143 35.8293 230.101 35.8694C230.062 35.9125 230.014 35.9465 229.96 35.969C229.906 35.9916 229.848 36.0022 229.79 36.0001H226.236C226.128 36.0065 226.021 35.9776 225.93 35.9178C225.84 35.8581 225.771 35.7706 225.734 35.6684L220.018 20.7007C219.993 20.6253 219.953 20.5952 219.892 20.6052C219.863 20.6113 219.838 20.6282 219.821 20.6525C219.804 20.6768 219.798 20.7066 219.802 20.7358L219.837 35.5579C219.838 35.616 219.827 35.6737 219.804 35.7273C219.782 35.7809 219.749 35.8293 219.707 35.8694C219.667 35.9125 219.619 35.9465 219.565 35.969C219.512 35.9916 219.454 36.0022 219.395 36.0001H216.098C216.04 36.0015 215.982 35.9906 215.928 35.9681C215.875 35.9456 215.827 35.912 215.787 35.8694Z" fill="#ffffff"></path><path d="M246.87 13.8523C246.83 13.8948 246.782 13.9285 246.728 13.951C246.674 13.9735 246.616 13.9844 246.558 13.9829H238.638C238.613 13.9794 238.588 13.9818 238.564 13.99C238.54 13.9982 238.519 14.0119 238.501 14.03C238.483 14.0481 238.47 14.0701 238.463 14.0942C238.455 14.1184 238.453 14.1439 238.458 14.1688V21.1025C238.454 21.1271 238.457 21.152 238.465 21.1755C238.473 21.1989 238.486 21.2203 238.503 21.2378C238.521 21.2553 238.542 21.2685 238.565 21.2764C238.589 21.2843 238.614 21.2867 238.638 21.2834H243.331C243.389 21.2825 243.447 21.2937 243.5 21.3162C243.554 21.3387 243.602 21.372 243.642 21.414C243.684 21.4543 243.717 21.5028 243.74 21.5563C243.762 21.6099 243.773 21.6675 243.773 21.7255V24.5493C243.774 24.6074 243.762 24.6651 243.74 24.7187C243.718 24.7723 243.684 24.8207 243.642 24.8608C243.603 24.9039 243.555 24.9379 243.501 24.9604C243.447 24.983 243.389 24.9936 243.331 24.9914H238.638C238.614 24.9881 238.589 24.9905 238.565 24.9984C238.542 25.0063 238.521 25.0196 238.503 25.0371C238.486 25.0546 238.473 25.0759 238.465 25.0993C238.457 25.1228 238.454 25.1478 238.458 25.1723V32.1563C238.453 32.1812 238.455 32.2067 238.463 32.2308C238.47 32.2549 238.483 32.2769 238.501 32.2951C238.519 32.3132 238.54 32.3269 238.564 32.335C238.588 32.3432 238.613 32.3457 238.638 32.3422H246.558C246.616 32.3407 246.673 32.351 246.727 32.3726C246.78 32.3942 246.829 32.4266 246.87 32.4678C246.911 32.5081 246.944 32.5565 246.967 32.6101C246.989 32.6636 247.001 32.7212 247 32.7793V35.5678C247.001 35.626 246.99 35.6836 246.967 35.7372C246.945 35.7908 246.912 35.8392 246.87 35.8794C246.83 35.9219 246.782 35.9555 246.728 35.9781C246.674 36.0006 246.616 36.0115 246.558 36.01H234.643C234.585 36.0115 234.527 36.0006 234.474 35.9781C234.42 35.9555 234.372 35.9219 234.332 35.8794C234.291 35.839 234.258 35.7904 234.237 35.7368C234.215 35.6832 234.205 35.6256 234.207 35.5678V10.7522C234.205 10.6944 234.216 10.637 234.237 10.5833C234.258 10.5297 234.291 10.4809 234.331 10.4401C234.372 10.3992 234.421 10.367 234.475 10.3456C234.528 10.3241 234.586 10.3137 234.643 10.3151H246.558C246.616 10.3136 246.673 10.324 246.727 10.3456C246.78 10.3672 246.829 10.3995 246.87 10.4407C246.911 10.481 246.944 10.5294 246.967 10.583C246.989 10.6365 247.001 10.6941 247 10.7522V13.5659C246.995 13.6746 246.948 13.7772 246.87 13.8523Z" fill="#ffffff"></path></g><defs><clipPath id="clip0_1381_607"><rect width="247" height="36" fill="white"></rect></clipPath></defs></svg>